<mxfile host="app.diagrams.net" modified="2023-08-17T03:15:11.762Z" agent="Mozilla/5.0 (Windows NT 10.0; Win64; x64; rv:109.0) Gecko/20100101 Firefox/117.0" version="21.6.8" etag="SWHA6gupnOVSF14pA4kw" type="github">
  <diagram name="PÃ¡gina-1" id="fam8JbV_yZuGafaC8Aw4">
    <mxGraphModel>
      <root>
        <mxCell id="0" />
        <mxCell id="1" parent="0" />
      </root>
    </mxGraphModel>
  </diagram>
</mxfile>
